{"title":"King Kong Escapes (1968).avi","uid":5613515,"size":1242909108,"categoryP":"video","categoryS":"movies","magnet":"?xt=urn:btih:a661de40fbed44e59f7f61d5df50a00f2a6b3cc6&amp;dn=King+Kong+Escapes+%281968%29.avi&amp;tr=udp%3A%2F%2Ftracker.openbittorrent.com%3A80&amp;tr=udp%3A%2F%2Fopen.demonii.com%3A1337&amp;tr=udp%3A%2F%2Ftracker.coppersurfer.tk%3A6969&amp;tr=udp%3A%2F%2Fexodus.desync.com%3A6969","seeders":1,"leechers":1,"uploader":"Beebe85","files":-1,"time":1275980370,"description":"King Kong Escapes (1968) (USA) DVD Rip\n\n\n\nGeneral\nComplete name                    : King Kong Escapes (1968).avi\nFormat                           : AVI\nFormat/Info                      : Audio Video Interleave\nFile size                        : 1.16 GiB\nDuration                         : 1h 36mn\nOverall bit rate                 : 1 724 Kbps\nMovie name                       : KINGKONGESCAPES.Title3.DVDRip\nWriting application              : Lavf52.33.0\nOriginal source form/Name        : KINGKONGESCAPES\n\nVideo\nID                               : 0\nFormat                           : AVC\nFormat/Info                      : Advanced Video Codec\nFormat profile                   : &lt;a class=&quot;__cf_email__&quot; href=&quot;/cdn-cgi/l/email-protection&quot; data-cfemail=&quot;da98bba9bfb6b3b4bf9a96ebf4e9&quot;&gt;[email&amp;#160;protected]&lt;/a&gt;&lt;script cf-hash='f9e31' type=&quot;text/javascript&quot;&gt;\n/* &lt;![CDATA[ */!function(){try{var t=&quot;currentScript&quot;in document?document.currentScript:function(){for(var t=document.getElementsByTagName(&quot;script&quot;),e=t.length;e--;)if(t[e].getAttribute(&quot;cf-hash&quot;))return t[e]}();if(t&amp;&amp;t.previousSibling){var e,r,n,i,c=t.previousSibling,a=c.getAttribute(&quot;data-cfemail&quot;);if(a){for(e=&quot;&quot;,r=parseInt(a.substr(0,2),16),n=2;a.length-n;n+=2)i=parseInt(a.substr(n,2),16)^r,e+=String.fromCharCode(i);e=document.createTextNode(e),c.parentNode.replaceChild(e,c)}}}catch(u){}}();/* ]]&gt; */&lt;/script&gt;\nFormat settings, CABAC           : No\nFormat settings, ReFrames        : 1 frame\nCodec ID                         : H264\nDuration                         : 1h 36mn\nBit rate                         : 1520 Kbps\nNominal bit rate                 : 1500 Kbps\nWidth                            : 640 pixels\nHeight                           : 274 pixels\nDisplay aspect ratio             : 2.35:1\nFrame rate                       : 29.970 fps\nResolution                       : 24 bits\nColorimetry                      : 4:2:0\nScan type                        : Progressive\nBits/(Pixel*Frame)               : 0.289\nStream size                      : 1.02 GiB (88%)\nWriting library                  : x264 core 67\n\n\nAudio\nID                               : 1\nFormat                           : AC-3\nFormat/Info                      : Audio Coding 3\nCodec ID                         : 2000\nDuration                         : 1h 36mn\nBit rate mode                    : Constant\nBit rate                         : 192 Kbps\nChannel(s)                       : 2 channels\nChannel positions                : L R\nSampling rate                    : 48.0 KHz\nStream size                      : 132 MiB (11%)\nAlignment                        : Aligned on interleaves\nInterleave, duration             : 32 ms (0.96 video frame)\nInterleave, preload duration     : 32 ms\n\n\n\n","torrent":{"xt":"urn:btih:a661de40fbed44e59f7f61d5df50a00f2a6b3cc6","amp;dn":"King+Kong+Escapes+%281968%29.avi","amp;tr":["udp%3A%2F%2Ftracker.openbittorrent.com%3A80","udp%3A%2F%2Fopen.demonii.com%3A1337","udp%3A%2F%2Ftracker.coppersurfer.tk%3A6969","udp%3A%2F%2Fexodus.desync.com%3A6969"],"infoHash":"a661de40fbed44e59f7f61d5df50a00f2a6b3cc6","infoHashBuffer":{"type":"Buffer","data":[166,97,222,64,251,237,68,229,159,127,97,213,223,80,160,15,42,107,60,198]},"announce":[],"urlList":[]}}